# xmcd
#
# Track frame offsets:
#	150
#	12517
#	23683
#	35650
#	47128
#	59955
#	87905
#	99231
#	111648
#	121655
#	134769
#	147388
#	158845
#	182397
#	194156
#	205927
#	215826
#	227700
#	243745
#	256166
#
# Disc length: 3544 seconds
# Revision: 0
# Processed by: cddbd v1.5.2PL0 Copyright (c) Steve Scherf et al.
# Submitted via: dBpowerAMP V12.0
#
DISCID=330dd614
DTITLE=B.B. King - 100 Hits Legends [CD 3)
DYEAR=2011
DGENRE=Blues
TTITLE0=Sugar Mama
TTITLE1=Days Of Old
TTITLE2=You've Been An Angel
TTITLE3=Please Accept My Love
TTITLE4=Why Does Everything Happen To Me?
TTITLE5=Sweet Sixteen
TTITLE6=Mean Old Frisco
TTITLE7=A Lonely Lover's Plea
TTITLE8=Bad Luck Soul
TTITLE9=Neighbourhood Affair
TTITLE10=Boogie Woogie Woman
TTITLE11=Sixteen Sons
TTITLE12=You Done Lost Your Good Thing Now
TTITLE13=Ruby Lee
TTITLE14=Dark Is The Night (Part 1)
TTITLE15=Jump With You Baby
TTITLE16=You Know I Go For You
TTITLE17=My Own Fault, Darling
TTITLE18=Highway Bound
TTITLE19=Sweet Chariot
EXTD=
EXTT0=
EXTT1=
EXTT2=
EXTT3=
EXTT4=
EXTT5=
EXTT6=
EXTT7=
EXTT8=
EXTT9=
EXTT10=
EXTT11=
EXTT12=
EXTT13=
EXTT14=
EXTT15=
EXTT16=
EXTT17=
EXTT18=
EXTT19=
PLAYORDER=
